<svg t="1655956062093" class="icon" viewBox="0 0 1024 1024" version="1.1" xmlns="http://www.w3.org/2000/svg" p-id="13039" width="200" height="200"><path d="M512 170.666667a341.333333 341.333333 0 1 1 0 682.666666 341.333333 341.333333 0 0 1 0-682.666666z" fill="#fe9c01" p-id="13040" data-spm-anchor-id="a313x.7781069.0.i0" class="selected"></path><path d="M390.229333 326.229333a21.333333 21.333333 0 0 1 30.208 0l87.893334 87.893334 87.893333-87.893334a21.333333 21.333333 0 0 1 30.208 30.208l-91.605333 91.52 83.84 0.042667a21.333333 21.333333 0 1 1 0 42.666667l-85.333334-0.042667v42.666667l85.333334 0.042666a21.333333 21.333333 0 1 1 0 42.666667l-85.333334-0.042667V682.666667a21.333333 21.333333 0 1 1-42.666666 0v-106.709334l-85.333334 0.042667a21.333333 21.333333 0 1 1 0-42.666667l85.333334-0.042666v-42.666667l-85.333334 0.042667a21.333333 21.333333 0 1 1 0-42.666667l76.458667-0.042667-91.562667-91.52a21.333333 21.333333 0 0 1-2.432-27.221333z" fill="#FFFFFF" p-id="13041"></path></svg>