<svg t="1655781185871" class="icon" viewBox="0 0 1024 1024" version="1.1" xmlns="http://www.w3.org/2000/svg" p-id="3635" width="200" height="200"><path d="M451.84 893.44H209.92a85.333333 85.333333 0 0 1-85.333333-85.333333v-190.293334a20.48 20.48 0 0 1 42.666666 0V810.666667a42.666667 42.666667 0 0 0 42.666667 42.666666h241.92a20.053333 20.053333 0 0 1 20.48 20.053334 20.48 20.48 0 0 1-20.48 20.053333z" fill="" p-id="3636"></path><path d="M145.92 597.333333a20.48 20.48 0 0 0-20.48 20.48V810.666667a85.333333 85.333333 0 0 0 85.333333 85.333333h241.92a20.48 20.48 0 0 0 20.48-20.48 20.053333 20.053333 0 0 0-20.48-20.053333H209.92a42.666667 42.666667 0 0 1-42.666667-42.666667v-194.986667a20.48 20.48 0 0 0-21.333333-20.48zM141.653333 426.666667a20.48 20.48 0 0 1-20.48-20.48V213.333333a85.333333 85.333333 0 0 1 85.333334-85.333333h241.92a20.48 20.48 0 0 1 20.48 20.48 20.053333 20.053333 0 0 1-20.48 20.053333H205.653333a42.666667 42.666667 0 0 0-42.666666 42.666667v194.986667a20.48 20.48 0 0 1-21.333334 20.48z" fill="" p-id="3637"></path><path d="M447.573333 130.56H205.653333a85.333333 85.333333 0 0 0-85.333333 85.333333v190.293334a20.48 20.48 0 0 0 42.666667 0V213.333333a42.666667 42.666667 0 0 1 42.666666-42.666666h241.92a20.053333 20.053333 0 0 0 21.76-19.626667 20.48 20.48 0 0 0-20.48-20.48zM882.346667 426.666667a20.48 20.48 0 0 1-20.48-20.48V213.333333a42.666667 42.666667 0 0 0-42.666667-42.666666h-242.773333a20.053333 20.053333 0 0 1-21.76-19.626667 20.48 20.48 0 0 1 20.48-20.48h241.92a85.333333 85.333333 0 0 1 85.333333 85.333333v190.293334a20.48 20.48 0 0 1-20.053333 20.48z" fill="" p-id="3638"></path><path d="M818.346667 130.56h-241.92a20.48 20.48 0 0 0-20.48 20.48 20.053333 20.053333 0 0 0 20.48 20.053333h241.92a42.666667 42.666667 0 0 1 42.666666 42.666667v192.426667a20.48 20.48 0 0 0 42.666667 0V213.333333a85.333333 85.333333 0 0 0-85.333333-85.333333zM822.613333 896h-241.92a21.333333 21.333333 0 0 1 0-42.666667h241.92a42.666667 42.666667 0 0 0 42.666667-42.666666v-192.853334a21.333333 21.333333 0 0 1 21.333333-21.333333 21.333333 21.333333 0 0 1 21.333334 21.333333V810.666667a85.333333 85.333333 0 0 1-85.333334 85.333333zM886.613333 538.88H137.386667a20.053333 20.053333 0 0 1-20.053334-20.053333 20.48 20.48 0 0 1 20.053334-20.48h749.226666a20.48 20.48 0 0 1 20.053334 20.48 20.053333 20.053333 0 0 1-20.053334 20.053333z" fill="" p-id="3639"></path><path d="M886.613333 498.346667H137.386667a20.48 20.48 0 0 0-20.053334 20.48 20.053333 20.053333 0 0 0 20.053334 20.053333h749.226666a20.053333 20.053333 0 0 0 20.053334-20.053333 20.48 20.48 0 0 0-20.053334-20.48z" fill="" p-id="3640"></path></svg>