<svg t="1655956591959" class="icon" viewBox="0 0 1024 1024" version="1.1" xmlns="http://www.w3.org/2000/svg" p-id="13944" width="200" height="200"><path d="M232.066915 904.023488l97.608062-56.365752c7.351432-4.247744 15.146978-6.882757 23.724331-6.882757 4.50971 0 8.916067 0.756223 13.06148 2.00875 45.571918 13.06148 94.688569 20.334117 145.552004 20.334117 246.261707 0 445.858604-166.382425 445.858604-371.531781 0-62.204737-18.431791-120.707153-50.732451-172.195827L393.756457 615.839996l-3.28379 1.823532c-4.041036 2.060939-8.550747 3.181459-13.374612 3.181459-11.131525 0-20.856004-6.076392-25.966395-15.20019l-1.928932-4.249791-81.158415-178.088024c-0.860601-2.006703-1.433652-4.197602-1.433652-6.308683 0-8.212032 6.674003-14.83487 14.859429-14.83487 3.337002 0 6.414083 1.069355 8.916067 2.946099l95.756901 68.200288c7.012717 4.561899 15.35471 7.247054 24.376177 7.247054 5.370311 0 10.454096-0.99056 15.22475-2.737344L876.219747 277.338493c-80.715323-95.157243-213.726709-157.361981-364.206956-157.361981-246.235101 0-445.884187 166.382425-445.884187 371.609553 0 111.921046 60.067051 212.736149 154.050562 280.806477 7.586792 5.449106 12.514012 14.261818 12.514012 24.219611 0 3.311419-0.704035 6.309706-1.564635 9.489118-7.507998 27.974122-19.552312 72.840982-20.074198 74.978668-0.938372 3.492544-2.424212 7.117095-2.424212 10.819416" p-id="13945" fill="#09bb07"></path></svg>